<svg width="231" height="86" viewBox="0 0 231 86" fill="none" xmlns="http://www.w3.org/2000/svg">
<g clip-path="url(#clip0_1075_644)">
<path d="M11.9336 8.42962C11.9336 8.81279 12.3598 9.36625 12.8712 9.57912C14.917 10.4732 14.917 10.2603 14.917 42.3613C14.917 74.5049 14.917 74.5474 12.8712 74.8455C12.1893 74.9306 11.9336 75.2712 11.9336 76.0375V77.0593H17.6873C23.3984 77.0593 23.441 77.0593 23.441 76.0801C23.441 75.4841 23.0574 74.9732 22.5033 74.7177L21.5231 74.292L21.3952 58.6247L21.31 42.9999H25.1032C27.1915 42.9999 29.4078 43.1702 30.0044 43.4257C31.1552 43.8514 32.3912 45.8098 32.3912 47.2573C32.3912 47.896 32.6469 48.1088 33.4567 48.1088H34.5222V42.1484V36.188H33.4993C32.6895 36.188 32.4338 36.4861 32.2207 37.6356C31.6666 40.488 30.9847 40.8712 25.9129 41.1692L21.31 41.4247V25.4167V9.36625H27.3194C32.2207 9.36625 33.5419 9.49397 34.5648 10.09C36.0139 10.9415 37.122 13.1128 37.4203 15.6247C37.5908 17.3276 37.7186 17.4554 38.8268 17.4554H40.0627V12.5593V7.66328H25.9982C12.8286 7.66328 11.9336 7.70586 11.9336 8.42962Z" fill="white"/>
<path d="M44.751 8.51477C44.751 8.98309 44.9641 9.36625 45.1772 9.36625C45.4329 9.36625 45.987 9.74942 46.4558 10.2177C47.3082 11.0692 47.3082 11.6227 47.3082 42.191C47.3082 62.7969 47.1803 73.5682 46.882 74.1217C46.6263 74.5474 46.0296 74.9306 45.6034 74.9306C44.9641 74.9306 44.751 75.2286 44.751 75.995V77.0593H50.5047H56.2584V75.995C56.2584 75.3989 56.0026 74.9306 55.7043 74.9306C55.3633 74.9306 54.8093 74.59 54.4257 74.1643C53.7438 73.4405 53.7012 70.5029 53.7012 40.5306V7.66328H49.2261C45.0493 7.66328 44.751 7.70586 44.751 8.51477Z" fill="white"/>
<path d="M156.842 8.51477C156.842 8.98309 157.012 9.36625 157.183 9.36625C157.396 9.36625 157.95 9.74942 158.461 10.2177L159.399 11.1118V42.3187C159.399 71.993 159.356 73.5682 158.632 74.2069C158.206 74.6326 157.609 74.9306 157.353 74.9306C157.055 74.9306 156.842 75.3989 156.842 75.995V77.0593H162.595H168.349V75.995C168.349 75.2286 168.136 74.9306 167.497 74.9306C167.071 74.9306 166.474 74.5474 166.218 74.1217C165.92 73.5682 165.792 62.2861 165.792 40.488V7.66328H161.317C157.14 7.66328 156.842 7.70586 156.842 8.51477Z" fill="white"/>
<path d="M179.77 13.0702C178.577 14.39 173.591 21.7554 173.164 22.8623C172.823 23.7564 178.79 19.6267 181.859 16.8593C184.246 14.6881 184.587 13.7514 183.351 12.6445C182.2 11.6227 181.006 11.7504 179.77 13.0702Z" fill="#B83B5E"/>
<path d="M110.172 28.8227C108.041 29.291 106.806 30.0573 105.271 31.888L103.566 33.8465V31.8029V29.8019H99.0913C94.9146 29.8019 94.6162 29.8445 94.6162 30.6534C94.6162 31.1217 94.8293 31.5049 95.0424 31.5049C95.2981 31.5049 95.8522 31.888 96.321 32.3564C97.1308 33.1653 97.1734 33.7613 97.1734 53.3455C97.1734 72.3336 97.1308 73.5682 96.4062 74.2069C95.98 74.6326 95.3834 74.9306 95.1277 74.9306C94.8293 74.9306 94.6162 75.3989 94.6162 75.995V77.0593H100.37H106.124V75.995C106.124 75.3564 105.868 74.9306 105.484 74.9306C105.143 74.9306 104.547 74.4623 104.206 73.9088C103.609 73.0148 103.524 70.7158 103.652 55.0484C103.779 37.3375 103.779 37.2524 104.802 35.2088C106.124 32.5267 108.127 30.994 110.812 30.7385C113.113 30.5257 115.074 31.3771 115.074 32.6544C115.074 32.995 114.392 34.0593 113.582 34.9534C111.707 37.0395 111.536 39.296 113.156 41.2118C114.946 43.3405 117.929 43.2128 119.932 40.9138C120.998 39.7217 121.041 36.5286 120.018 34.4851C119.08 32.6544 116.949 30.3554 115.5 29.589C114.264 28.9504 111.366 28.5247 110.172 28.8227Z" fill="white"/>
<path d="M131.482 29.3336C128.456 30.0999 125.43 32.6118 124.28 35.3366C123.299 37.6781 123.001 40.7009 123.598 42.1484C125.175 45.9801 130.843 45.597 131.866 41.5524C132.42 39.5088 131.312 37.3801 129.309 36.4009C125.771 34.7405 129.266 30.6534 134.253 30.6534C137.961 30.6534 141.413 33.1653 142.351 36.5286C143.629 41.2544 142.223 43.1702 133.145 49.1732C125.644 54.1544 122.404 58.4969 121.978 64.2445C121.595 69.8217 123.939 74.4623 128.243 76.7187C132.676 79.0177 138.216 77.6128 141.029 73.4405L142.052 71.9078L143.16 73.9088C144.609 76.5059 146.058 77.5702 148.616 77.7831C151.301 78.0811 153.56 77.1019 154.71 75.2712C155.776 73.5257 155.776 73.2276 154.71 73.2276C154.242 73.2276 153.858 73.3979 153.858 73.5682C153.858 73.7811 153.474 74.3346 153.006 74.8455C151.855 76.0375 149.894 76.0801 148.786 74.888C147.976 73.994 147.934 73.2702 147.806 56.0276L147.678 38.1039L146.399 35.8049C143.501 30.5257 137.407 27.8861 131.482 29.3336ZM140.859 69.6514C139.921 72.1633 138.515 73.3128 136.085 73.5257C133.23 73.7811 130.587 72.3762 129.224 69.7791C128.329 68.1187 128.243 67.4801 128.371 64.287C128.542 61.2643 128.797 60.2425 129.906 58.0286C131.355 55.1762 134.253 52.1108 138.515 48.8752L141.285 46.7465L141.413 57.3474C141.498 66.0752 141.413 68.2039 140.859 69.6514Z" fill="white"/>
<path d="M198.097 29.504C193.75 30.9515 191.065 34.4426 190.596 39.2535C190.34 42.1911 191.065 43.596 193.366 44.5752C194.773 45.1287 195.071 45.1287 196.477 44.4901C198.31 43.6812 199.162 42.3188 199.12 40.4881C199.077 38.6574 198.395 37.5931 196.477 36.401C194.602 35.2089 194.56 35.0386 195.241 33.4634C196.009 31.8455 198.395 30.8663 201.634 30.8663C203.979 30.8663 204.703 31.0366 206.237 32.0584C209.391 34.1446 210.755 39.3386 208.922 42.3614C208.027 43.8089 204.49 46.5337 198.694 50.2802C190.553 55.5594 187.399 62.7545 189.871 70.2475C191.32 74.6752 195.71 77.9109 200.143 77.9109C203.041 77.8683 207.942 74.9307 208.624 72.7594C209.008 71.6525 209.562 71.7376 209.86 72.9723C210.244 74.5049 212.204 76.6762 213.824 77.3148C215.486 78.0386 217.958 78.0812 219.194 77.4426C221.879 76.0802 223.498 73.2277 221.623 73.2277C221.154 73.2277 220.771 73.4832 220.771 73.8238C220.771 74.7178 219.109 75.7822 217.745 75.7822C217.148 75.7822 216.296 75.399 215.827 74.8881C215.06 74.0366 215.017 72.9297 214.804 55.8149C214.591 38.8703 214.548 37.5505 213.738 35.9753C212.588 33.6762 210.286 31.4624 207.772 30.2703C205.257 29.0782 200.484 28.6951 198.097 29.504ZM208.752 57.7733C208.624 67.5653 208.539 68.9277 207.814 70.4178C206.237 73.5683 202.956 74.4624 199.461 72.7168C197.031 71.4822 196.179 70.2049 195.625 67.1396C194.815 62.8822 196.35 57.901 199.546 54.2396C201.038 52.5366 207.942 46.8743 208.539 46.8317C208.752 46.8317 208.837 51.7703 208.752 57.7733Z" fill="white"/>
<path d="M173.037 30.8663C173.037 31.6326 173.25 31.9306 173.89 31.9306C174.316 31.9306 174.912 32.3138 175.168 32.7395C175.424 33.293 175.594 40.5732 175.594 53.4306C175.594 66.288 175.424 73.5682 175.168 74.1217C174.912 74.5474 174.316 74.9306 173.89 74.9306C173.25 74.9306 173.037 75.2286 173.037 75.995V77.0593H178.791H184.544V75.995C184.544 75.3564 184.289 74.9306 183.948 74.9306C183.607 74.9306 183.01 74.5049 182.669 73.994C182.073 73.1425 181.987 70.29 181.987 51.4296V29.8019H177.512H173.037V30.8663Z" fill="white"/>
<path d="M72.8878 28.2549C68.7537 29.3193 65.9834 31.5757 64.1081 35.4925L63 37.8341V52.3094V66.7846L64.236 69.2539C66.4948 73.7242 70.4159 76.3638 75.2319 76.7044C77.7465 76.8747 78.3858 76.747 80.8151 75.5975C84.1821 74.0222 86.8245 71.5104 88.1884 68.4876L89.2539 66.2312L89.126 51.5856C88.9982 37.0252 88.9982 36.9826 87.9327 34.9391C86.6967 32.4698 84.2673 30.1708 81.7101 29.0638C79.5365 28.0846 75.1893 27.7015 72.8878 28.2549ZM79.2808 31.0223C80.6446 31.9163 81.7954 34.5559 82.3494 38.047C82.9461 41.5381 82.9461 62.8252 82.3921 66.742C81.6249 71.8935 79.3234 74.7886 75.9991 74.7886C73.6976 74.7886 72.2485 73.6817 70.8847 70.9995L69.8192 68.9133V52.3094C69.8192 35.8331 69.8192 35.7054 70.7994 33.7044C72.4616 30.2985 76.2974 29.1064 79.2808 31.0223Z" fill="white"/>
<g clip-path="url(#clip1_1075_644)">
</g>
</g>
<defs>
<clipPath id="clip0_1075_644">
<rect width="231" height="86" fill="white"/>
</clipPath>
<clipPath id="clip1_1075_644">
<rect width="231" height="86" fill="white" transform="translate(74 85)"/>
</clipPath>
</defs>
</svg>
